<?xml version="1.0" standalone="no"?>
<!DOCTYPE svg PUBLIC "-//W3C//DTD SVG 20010904//EN"
 "http://www.w3.org/TR/2001/REC-SVG-20010904/DTD/svg10.dtd">
<svg version="1.0" xmlns="http://www.w3.org/2000/svg"
 width="200.000000pt" height="200.000000pt" viewBox="0 0 200.000000 200.000000"
 preserveAspectRatio="xMidYMid meet">

<g transform="translate(0.000000,200.000000) scale(0.100000,-0.100000)"
fill="#000000" stroke="none">
<path d="M773 1432 c-26 -16 -33 -69 -33 -247 0 -196 6 -225 47 -244 33 -15
394 -15 427 0 39 18 46 58 46 250 0 172 -7 225 -33 241 -7 4 -109 8 -227 8
-118 0 -220 -4 -227 -8z m271 -86 c77 -32 99 -119 51 -202 -24 -41 -124 -138
-133 -129 -3 3 25 34 61 70 83 82 103 136 72 195 -33 64 -107 74 -179 25 -38
-26 -49 -20 -17 9 17 16 83 44 104 46 4 0 22 -6 41 -14z m87 -18 c34 -48 37
-140 7 -192 -32 -54 -53 -58 -24 -4 45 82 42 145 -11 200 -20 21 -23 28 -11
28 9 0 27 -14 39 -32z m-103 -14 c37 -10 25 -22 -17 -17 -38 5 -43 2 -101 -52
-33 -32 -63 -55 -66 -52 -7 7 99 108 125 119 21 9 31 9 59 2z m7 -54 c12 -14
15 -27 11 -47 -8 -32 -132 -157 -147 -148 -5 4 15 26 44 50 63 51 89 88 85
118 -6 43 -43 32 -112 -32 -61 -57 -82 -72 -74 -53 9 21 140 132 156 132 10 0
27 -9 37 -20z m46 -62 c-11 -33 -111 -143 -111 -122 0 6 16 26 36 45 41 39 64
79 64 111 0 16 3 19 11 11 8 -8 8 -20 0 -45z m-94 -2 c-21 -31 -100 -96 -118
-96 -7 0 4 15 26 32 22 18 53 47 69 65 33 37 47 36 23 -1z"/>
<path d="M910 721 l0 -111 41 0 c43 0 52 22 11 28 -18 3 -22 10 -22 38 0 27 4
34 20 34 11 0 20 5 20 11 0 6 -9 13 -20 16 -28 8 -28 60 0 65 35 5 27 23 -12
26 l-38 3 0 -110z"/>
<path d="M1027 823 c-4 -3 -7 -53 -7 -110 0 -85 3 -103 15 -103 11 0 15 12 15
50 0 43 3 50 20 50 11 0 20 7 20 15 0 8 -9 15 -20 15 -16 0 -20 7 -20 30 0 25
4 30 25 30 16 0 25 6 25 15 0 10 -10 15 -33 15 -19 0 -37 -3 -40 -7z"/>
</g>
</svg>
